# xmcd
#
# Track frame offsets: 
#        182
#        19905
#        43417
#        67907
#        78760
#        103417
#        118322
#        137742
#        155802
#        168055
#        187385
#
# Disc length: 2750 seconds
#
# Revision: 0
# Processed by: cddbd v1.5.2PL0 Copyright (c) Steve Scherf et al.
# Submitted via: ExactAudioCopy v0.99pb4
#
DISCID=9f0abc0b
DTITLE=Gang Olsena - Dzika Wolnosc
DYEAR=1993
DGENRE=rhythm and blues
TTITLE0=Bezdomne sny
TTITLE1=Czula jest noc
TTITLE2=Uwierz mi
TTITLE3=Jak tu nie wypic
TTITLE4=Daje ci wszystko
TTITLE5=Zimny oddech mafii
TTITLE6=Lisica
TTITLE7=Masz tego dosc - czesc I
TTITLE8=Masz tego dosc - czesc II ( instrumentalna)
TTITLE9=Pechowy facet ( Unlucky Guy II )
TTITLE10=Dzika wolnosc
EXTD=
EXTT0=
EXTT1=
EXTT2=
EXTT3=
EXTT4=
EXTT5=
EXTT6=
EXTT7=
EXTT8=
EXTT9=
EXTT10=
PLAYORDER=
